Coordinates
version=1
nRows=14
nColumns=40
inDegrees=yes

Units are S.I. units (second, meters, Newtons, ...)
Angles are in degrees.

endheader
time	pelvis_tilt	pelvis_list	pelvis_rotation	pelvis_tx	pelvis_ty	pelvis_tz	hip_flexion_r	hip_adduction_r	hip_rotation_r	knee_angle_r	knee_angle_r_beta	ankle_angle_r	subtalar_angle_r	mtp_angle_r	hip_flexion_l	hip_adduction_l	hip_rotation_l	knee_angle_l	knee_angle_l_beta	ankle_angle_l	subtalar_angle_l	mtp_angle_l	lumbar_extension	lumbar_bending	lumbar_rotation	arm_flex_r	arm_add_r	arm_rot_r	elbow_flex_r	pro_sup_r	wrist_flex_r	wrist_dev_r	arm_flex_l	arm_add_l	arm_rot_l	elbow_flex_l	pro_sup_l	wrist_flex_l	wrist_dev_l
     16.39692857	     -3.88059727	     -2.51480224	     10.64526919	      0.95380531	      0.92128447	      0.57152939	      8.26631658	      2.77715783	    -14.44418342	     22.66633601	     22.66633601	     20.95967105	      1.94346082	     -0.37380687	     29.71240823	    -10.06050099	      2.09054400	     20.03254321	     20.03254321	     -1.04168257	     -0.99218204	      4.05114968	     -9.77401387	      5.02063634	      5.48551107	     60.54504386	    -15.66132031	     -1.15993760	     78.68934880	     44.87891431	      0.00000000	      0.00000000	    -17.13630252	     -9.26844819	     30.07315350	     33.57868092	     42.98135692	      0.00000000	      0.00000000
     16.41885714	     -4.00736025	     -2.70793320	     10.12953799	      0.95393844	      0.92062014	      0.56931210	      8.05124039	      2.84842982	    -14.16214398	     22.57951135	     22.57951135	     21.15199658	      2.35038959	     -0.44058639	     29.48332447	    -10.21820280	      1.98722641	     20.23283904	     20.23283904	     -1.18992893	     -1.29221503	      3.79525062	     -9.66884935	      4.98805473	      5.58703447	     61.01346165	    -15.27707197	     -0.83659246	     79.14771378	     44.85833997	      0.00000000	      0.00000000	    -16.88080462	     -9.57846041	     30.02804441	     33.50016188	     43.00230172	      0.00000000	      0.00000000
     16.44078571	     -4.12643365	     -2.93735202	      9.64720954	      0.95424360	      0.91976657	      0.56681282	      7.87282324	      2.94739386	    -13.84475145	     22.59183843	     22.59183843	     21.36281911	      2.62473824	     -0.52387648	     29.17052119	    -10.39191155	      1.88618318	     20.39103063	     20.39103063	     -1.02002846	     -1.60303716	      3.62563897	     -9.51040809	      4.96061103	      5.60050687	     61.17295415	    -14.96370316	     -0.63524856	     79.39035907	     44.84554055	      0.00000000	      0.00000000	    -16.58409696	     -9.99329948	     29.95238685	     33.43004519	     43.01872826	      0.00000000	      0.00000000
     16.46271429	     -4.18451871	     -3.16868201	      9.15389744	      0.95469940	      0.91886567	      0.56395506	      7.64859622	      3.02233169	    -13.49624426	     22.67039437	     22.67039437	     21.59605864	      2.88863987	     -0.61900318	     28.78871074	    -10.56272909	      1.78974266	     20.62697979	     20.62697979	     -0.59533754	     -2.07729728	      3.35368293	     -9.46684219	      4.99773488	      5.55794607	     61.25652939	    -14.56970595	     -0.38480617	     79.67349195	     44.82958024	      0.00000000	      0.00000000	    -16.11509279	    -10.36688462	     29.87270774	     33.39070490	     43.03868187	      0.00000000	      0.00000000
     16.48464286	     -4.26026149	     -3.39566122	      8.70973511	      0.95521195	      0.91798155	      0.56063131	      7.44882797	      3.05601332	    -13.16822207	     22.77381372	     22.77381372	     21.80560011	      3.08547411	     -0.70490385	     28.40469879	    -10.68051411	      1.71037179	     20.83706643	     20.83706643	      0.05470357	     -2.59446361	      3.03686404	     -9.43055277	      5.05232458	      5.38590730	     61.19960392	    -14.27755887	     -0.18744912	     79.87339656	     44.81733256	      0.00000000	      0.00000000	    -15.55045063	    -10.70659107	     29.78602392	     33.38422304	     43.05995451	      0.00000000	      0.00000000
     16.50657143	     -4.23910950	     -3.62850713	      8.31330479	      0.95578416	      0.91722257	      0.55683659	      7.17197033	      3.05439026	    -12.93507668	     22.95918419	     22.95918419	     21.98014666	      3.24552074	     -0.69797654	     28.05189553	    -10.68852543	      2.03788303	     21.25491094	     21.25491094	      0.57884687	     -3.98813376	      2.38240837	     -9.54124860	      5.16556271	      5.12501136	     61.08282177	    -14.01780368	      0.40018652	     80.71841083	     44.77934521	      0.00000000	      0.00000000	    -14.78809224	    -10.92529601	     29.66512952	     33.03988500	     43.11955050	      0.00000000	      0.00000000
     16.52850000	     -4.35588811	     -3.75647120	      7.87424471	      0.95641023	      0.91675633	      0.55263688	      6.95337362	      2.92004897	    -12.56361587	     22.99233390	     22.99233390	     22.11968555	      3.40928293	     -0.74341190	     27.69897064	    -10.65309688	      1.86896708	     21.44570255	     21.44570255	      1.34937397	     -4.52972481	      2.06341702	     -9.47887177	      5.24437278	      5.00595034	     60.60136014	    -13.81572865	      0.55167303	     80.62305633	     44.77711321	      0.00000000	      0.00000000	    -13.86875438	    -11.35923698	     29.50095299	     33.11144426	     43.15662516	      0.00000000	      0.00000000
     16.55042857	     -4.42814971	     -3.86436915	      7.45748978	      0.95710046	      0.91658823	      0.54808044	      6.64314781	      2.73870801	    -12.24699031	     22.95238434	     22.95238434	     22.13353767	      3.57568143	     -0.73239203	     27.40864252	    -10.56292657	      1.77916840	     21.80883902	     21.80883902	      2.11333807	     -5.28159642	      1.76600587	     -9.47589723	      5.27812389	      4.93629363	     60.06285746	    -13.73144624	      0.64714394	     80.41426004	     44.78084902	      0.00000000	      0.00000000	    -12.81874664	    -11.77321737	     29.29494034	     33.18373391	     43.20318040	      0.00000000	      0.00000000
     16.57235714	     -4.54693497	     -3.95392190	      7.04006746	      0.95781727	      0.91672946	      0.54312337	      6.30914913	      2.51030438	    -11.93772915	     22.77651971	     22.77651971	     22.06031888	      3.82178454	     -0.68561311	     27.19944261	    -10.40628582	      1.74411948	     22.19509840	     22.19509840	      2.80348516	     -6.08030387	      1.55256785	     -9.44054203	      5.33766168	      4.89688576	     59.42540192	    -13.71411386	      0.70175166	     80.05153907	     44.79053975	      0.00000000	      0.00000000	    -11.61123250	    -12.20058677	     29.03964921	     33.29164040	     43.25823090	      0.00000000	      0.00000000
     16.59428571	     -4.67418093	     -4.04827711	      6.60678914	      0.95855542	      0.91728827	      0.53774244	      5.83753805	      2.23318100	    -11.80906551	     22.31266829	     22.31266829	     21.83502128	      4.48023691	     -0.69115821	     26.95947981	    -10.10619983	      2.18628816	     22.49382909	     22.49382909	      3.36567597	     -7.65255213	      1.93129268	     -9.36992177	      5.39047433	      5.33298485	     58.69453207	    -14.37564550	      0.32901973	     78.95006274	     44.84820838	      0.00000000	      0.00000000	    -10.00869155	    -12.39260024	     28.28765953	     32.97439979	     43.42153334	      0.00000000	      0.00000000
     16.61621429	     -4.87462353	     -4.08451683	      6.12177667	      0.95935529	      0.91792758	      0.53224840	      5.50583736	      1.88841373	    -11.53429146	     21.97312703	     21.97312703	     21.59590431	      4.84024035	     -0.59041096	     26.84632515	     -9.89711043	      1.96577018	     22.88762582	     22.88762582	      3.89314719	     -8.26236135	      1.81714104	     -9.30428271	      5.43822416	      5.23478230	     57.85078272	    -14.19763538	      0.43167660	     78.44123764	     44.85983806	      0.00000000	      0.00000000	     -8.66513772	    -12.82137813	     27.97354877	     33.16514661	     43.48598198	      0.00000000	      0.00000000
     16.63814286	     -5.01672752	     -4.15912648	      5.61343410	      0.96030540	      0.91898789	      0.52642362	      4.87154187	      1.52957624	    -11.61817125	     21.15310217	     21.15310217	     20.96985778	      5.91851545	     -1.21383906	     26.73963004	     -9.63639978	      2.06509472	     23.46588611	     23.46588611	      5.06324151	     -9.08861531	      3.88200264	     -9.19079892	      5.50207902	      5.24431541	     57.33208287	    -14.05666215	     -0.07253479	     75.62674357	     45.03194594	      0.00000000	      0.00000000	     -7.20505789	    -12.08204056	     22.54368359	     32.10283126	     44.46153136	      0.00000000	      0.00000000
     16.66007143	     -5.19792739	     -4.24128924	      5.02985231	      0.96138919	      0.92003395	      0.52060678	      4.32829944	      1.19327393	    -11.50285025	     20.43496260	     20.43496260	     20.57023197	      6.78584062	     -1.01185339	     26.53489681	     -9.46238862	      1.84915716	     23.76453319	     23.76453319	      5.43160143	     -9.79621513	      3.86352881	     -9.07889886	      5.60065871	      5.55432648	     56.19158893	    -14.38214823	     -0.14719986	     74.29098856	     45.07803527	      0.00000000	      0.00000000	     -5.66276509	    -12.50779532	     22.07214764	     32.62368114	     44.55495395	      0.00000000	      0.00000000
     16.68200000	     -5.35692235	     -4.30656544	      4.38518369	      0.96257450	      0.92115600	      0.51469946	      3.79848826	      0.79191207	    -11.43457080	     19.78452510	     19.78452510	     20.14427637	      7.86296326	     -0.87046446	     26.26913360	     -9.29204992	      1.55064679	     24.03781929	     24.03781929	      5.79826073	    -10.42349074	      3.99377752	     -8.95192434	      5.66712418	      5.88098973	     55.02932444	    -14.65157520	     -0.31921710	     72.48115120	     45.14305530	      0.00000000	      0.00000000	     -4.05133931	    -12.85321976	     21.45775045	     33.11748051	     44.66860580	      0.00000000	      0.00000000
